<svg xmlns="http://www.w3.org/2000/svg" width="1080" height="1350" viewBox="0 0 1080 1350" fill="none">
  <defs>
    <linearGradient id="hxg" x1="0" y1="0" x2="0" y2="1350" gradientUnits="userSpaceOnUse">
      <stop offset="0" stop-color="#ffffff"/>
      <stop offset="1" stop-color="#e8f0fb"/>
    </linearGradient>
    <radialGradient id="hxBlue" cx="0.85" cy="0.12" r="0.5">
      <stop offset="0" stop-color="#005be3" stop-opacity="0.14"/>
      <stop offset="1" stop-color="#005be3" stop-opacity="0"/>
    </radialGradient>
    <radialGradient id="hxOr" cx="0.1" cy="0.95" r="0.5">
      <stop offset="0" stop-color="#E86A27" stop-opacity="0.08"/>
      <stop offset="1" stop-color="#E86A27" stop-opacity="0"/>
    </radialGradient>
    <pattern id="hxDots" width="46" height="46" patternUnits="userSpaceOnUse">
      <circle cx="2" cy="2" r="2" fill="#005be3" fill-opacity="0.06"/>
    </pattern>
  </defs>
  <rect width="1080" height="1350" fill="url(#hxg)"/>
  <rect width="1080" height="1350" fill="url(#hxDots)"/>
  <rect width="1080" height="1350" fill="url(#hxBlue)"/>
  <rect width="1080" height="1350" fill="url(#hxOr)"/>
  <g stroke="#005be3" stroke-opacity="0.12" stroke-width="2" fill="none">
    <polygon points="1059,140 1022,204 948,204 911,140 948,76 1022,76"/>
    <polygon points="1086,300 1063,340 1017,340 994,300 1017,260 1063,260"/>
    <polygon points="156,1210 113,1284 27,1284 -16,1210 27,1136 113,1136"/>
    <polygon points="219,1300 197,1338 153,1338 131,1300 153,1262 197,1262"/>
  </g>
  <g stroke="#36a3ff" stroke-opacity="0.10" stroke-width="2" fill="none">
    <polygon points="40,150 18,188 -26,188 -48,150 -26,112 18,112"/>
    <polygon points="1030,1180 1008,1218 964,1218 942,1180 964,1142 1008,1142"/>
  </g>
</svg>
